<svg height="512pt" viewBox="0 0 512 512" width="512pt" xmlns="http://www.w3.org/2000/svg" xmlns:xlink="http://www.w3.org/1999/xlink"><linearGradient id="a" gradientUnits="userSpaceOnUse" x1="0" x2="512" y1="256" y2="256"><stop offset="0" stop-color="#00f1ff"/><stop offset=".231" stop-color="#00d8ff"/><stop offset=".5138" stop-color="#00c0ff"/><stop offset=".7773" stop-color="#00b2ff"/><stop offset="1" stop-color="#00adff"/></linearGradient><path d="m512 256c0 141.386719-114.613281 256-256 256s-256-114.613281-256-256 114.613281-256 256-256 256 114.613281 256 256zm0 0" fill="url(#a)"/><g fill="#fff"><path d="m135.394531 186.179688h241.210938c28 0 50.78125-22.78125 50.78125-50.785157 0-28-22.78125-50.78125-50.78125-50.78125h-241.210938c-28 0-50.78125 22.78125-50.78125 50.78125 0 28.003907 22.78125 50.785157 50.78125 50.785157zm-20.78125-50.785157c0-3.859375 1.078125-7.464843 2.917969-10.566406l31.351562 31.351563h-13.488281c-11.457031 0-20.78125-9.324219-20.78125-20.785157zm66.257813-20.78125 41.566406 41.566407h-31.128906l-41.566406-41.566407zm42.425781 0h24.992187v24.992188zm174.089844 20.78125c0 11.460938-9.320313 20.785157-20.78125 20.785157h-98.316407v-41.566407h98.316407c11.460937 0 20.78125 9.324219 20.78125 20.78125zm0 0"/><path d="m385.882812 325.820312h-259.765624c-22.886719 0-41.503907 18.621094-41.503907 41.507813v18.554687c0 22.886719 18.617188 41.503907 41.503907 41.503907h193.496093c8.285157 0 15-6.714844 15-15 0-8.28125-6.714843-15-15-15h-11.503906v-41.566407h77.769531c6.347656 0 11.507813 5.160157 11.507813 11.507813v18.554687c0 6.34375-5.160157 11.503907-11.507813 11.503907-8.28125 0-15 6.71875-15 15 0 8.285156 6.71875 15 15 15 22.886719 0 41.507813-18.617188 41.507813-41.503907v-18.554687c0-22.886719-18.617188-41.507813-41.503907-41.507813zm-195.734374 71.566407-41.566407-41.566407h32.121094l41.570313 41.566407zm-75.535157-11.503907v-18.558593c0-.933594.125-1.839844.335938-2.710938l32.773437 32.773438h-21.605468c-6.34375 0-11.503907-5.160157-11.503907-11.503907zm150.082031 11.503907-41.566406-41.566407h31.378906l23.601563 23.601563v17.964844zm0 0"/><path d="m376.605469 205.214844h-241.210938c-28 0-50.78125 22.78125-50.78125 50.785156s22.78125 50.78125 50.78125 50.78125h241.210938c28 0 50.78125-22.777344 50.78125-50.78125s-22.78125-50.785156-50.78125-50.785156zm-188.359375 69.5-39.5-39.5h31.128906l41.570312 41.566406h-31.484374c-.503907-.722656-1.066407-1.417969-1.714844-2.066406zm75.214844 1.65625-41.160157-41.152344h32.125l41.566407 41.566406h-32.164063c-.125-.136718-.238281-.28125-.367187-.414062zm59.710937-14.835938-26.320313-26.316406h26.320313zm-208.558594-5.535156c0-3.601562.921875-6.992188 2.542969-9.949219l30.734375 30.734375h-12.496094c-11.457031 0-20.78125-9.324218-20.78125-20.785156zm261.992188 20.785156h-23.433594v-41.566406h23.433594c11.460937 0 20.78125 9.320312 20.78125 20.78125s-9.320313 20.785156-20.78125 20.785156zm0 0"/></g></svg>