<svg height="464pt" viewBox="-5 0 464 464.00859" width="464pt" xmlns="http://www.w3.org/2000/svg"><path d="m397.90625 327.527344v136.480468h-224v-72c0-4.417968-3.582031-8-8-8h-64c-26.511719 0-48-21.488281-48-48v-56h-45.921875c-3.15625-.007812-6.015625-1.871093-7.292969-4.757812-1.28125-2.886719-.7421872-6.257812 1.375-8.601562l67.839844-74.640626c-.003906-86.859374 58.304688-162.902343 142.191406-185.433593 83.886719-22.535157 172.453125 14.058593 215.972656 89.230469 43.515626 75.171874 31.148438 170.199218-30.164062 231.722656zm0 0" fill="#ffc477"/><path d="m229.90625 248.007812h-32l-16-16v-24l-24-8v-24l16-16h176l16 16v24l-24 8-8 32h-16l-24 24h-40zm0 0" fill="#ed539d"/><path d="m229.90625 72.007812 24-16h40l24 24h16l8 32 24 8v24l-16 16h-176l-16-16v-24l24-8v-24l16-16zm0 0" fill="#ea348b"/><g fill="#c61469"><path d="m205.90625 136.007812h-8c-2.121094 0-4.15625-.84375-5.65625-2.34375l-10.34375-10.34375c-3.125-3.125-3.125-8.1875 0-11.3125 3.125-3.121093 8.1875-3.121093 11.3125 0l8 8h4.6875zm0 0"/><path d="m253.90625 96.007812h-8c-2.121094 0-4.15625-.84375-5.65625-2.34375l-10.34375-10.34375c-3.125-3.125-3.125-8.1875 0-11.3125 3.125-3.121093 8.1875-3.121093 11.3125 0l8 8h4.6875zm0 0"/><path d="m245.90625 136.007812h-24v-16h20.6875l13.65625-13.65625 11.3125 11.3125-16 16c-1.5 1.5-3.535156 2.34375-5.65625 2.34375zm0 0"/><path d="m325.90625 136.007812h-8v-16h4.6875l8-8c3.125-3.121093 8.1875-3.121093 11.3125 0 3.121094 3.125 3.121094 8.1875 0 11.3125l-10.34375 10.34375c-1.5 1.5-3.535156 2.34375-5.65625 2.34375zm0 0"/><path d="m301.90625 88.007812h-16v-16h16c4.417969 0 8 3.582032 8 8 0 4.417969-3.582031 8-8 8zm0 0"/><path d="m291.5625 125.664062-11.3125-11.3125 8-8c1.5-1.5 3.535156-2.34375 5.65625-2.34375h16v16h-12.6875zm0 0"/></g><path d="m181.90625 208.007812c-3.125-3.125-3.125-8.1875 0-11.3125l10.34375-10.34375c1.5-1.5 3.535156-2.34375 5.65625-2.34375h8v16h-4.6875l-8 8c-3.125 3.125-8.1875 3.125-11.3125 0zm0 0" fill="#e4187a"/><path d="m229.90625 248.007812c-3.125-3.125-3.125-8.1875 0-11.3125l10.34375-10.34375c1.5-1.5 3.535156-2.34375 5.65625-2.34375h8v16h-4.6875l-8 8c-3.125 3.125-8.1875 3.125-11.3125 0zm0 0" fill="#e4187a"/><path d="m256.25 213.664062-13.65625-13.65625h-20.6875v-16h24c2.121094 0 4.15625.84375 5.65625 2.34375l16 16zm0 0" fill="#e4187a"/><path d="m341.90625 208.007812c-3.125 3.125-8.1875 3.125-11.3125 0l-8-8h-4.6875v-16h8c2.121094 0 4.15625.84375 5.65625 2.34375l10.34375 10.34375c3.121094 3.125 3.121094 8.1875 0 11.3125zm0 0" fill="#e4187a"/><path d="m301.90625 248.007812h-16v-16h16c4.417969 0 8 3.582032 8 8 0 4.417969-3.582031 8-8 8zm0 0" fill="#e4187a"/><path d="m309.90625 216.007812h-16c-2.121094 0-4.15625-.84375-5.65625-2.34375l-8-8 11.3125-11.3125 5.65625 5.65625h12.6875zm0 0" fill="#e4187a"/></svg>