<svg height="512pt" viewBox="0 0 512 512" width="512pt" xmlns="http://www.w3.org/2000/svg" xmlns:xlink="http://www.w3.org/1999/xlink"><linearGradient id="a" gradientUnits="userSpaceOnUse" x1="0" x2="512" y1="256" y2="256"><stop offset="0" stop-color="#00f1ff"/><stop offset=".231" stop-color="#00d8ff"/><stop offset=".5138" stop-color="#00c0ff"/><stop offset=".7773" stop-color="#00b2ff"/><stop offset="1" stop-color="#00adff"/></linearGradient><path d="m512 256c0 141.386719-114.613281 256-256 256s-256-114.613281-256-256 114.613281-256 256-256 256 114.613281 256 256zm0 0" fill="url(#a)"/><path d="m371.527344 247.691406 29.332031-92.523437-.1875-.058594c.136719-.8125.222656-1.636719.222656-2.488281 0-8.28125-6.714843-15-15-15-6.34375 0-11.503906-5.160156-11.503906-11.507813 0-6.34375 5.160156-11.503906 11.503906-11.503906 6.347657 0 11.507813 5.160156 11.507813 11.503906 0 8.285157 6.714844 15 15 15s15-6.714843 15-15c0-22.886719-18.621094-41.503906-41.507813-41.503906s-41.503906 18.617187-41.503906 41.503906c0 16.046875 9.15625 29.984375 22.511719 36.890625l-24.441406 77.09375c-26.601563-2.558594-52.140626 6.429688-71.113282 23.195313l-34.335937-30.625c-3.332031-14.578125-11.972657-27.144531-23.777344-35.554688 4.257813-6.515625 6.742187-14.289062 6.742187-22.636719 0-22.886718-18.621093-41.507812-41.507812-41.507812s-41.503906 18.621094-41.503906 41.507812c0 8.347657 2.484375 16.121094 6.742187 22.636719-6.914062 4.925781-12.742187 11.273438-17.058593 18.621094-.28125-.394531-.570313-.773437-.84375-1.175781-9.648438-14.066406-13.234376-31.046875-10.109376-47.816406 6.457032-34.609376 39.867188-57.527344 74.484376-51.0625 34.613281 6.453124 57.519531 39.867187 51.0625 74.480468-1.515626 8.144532 3.855468 15.976563 11.996093 17.496094 8.140625 1.515625 15.980469-3.851562 17.496094-11.996094 9.488281-50.875-24.179687-99.984375-75.054687-109.476562-50.878907-9.488282-99.984376 24.183594-109.476563 75.058594-4.597656 24.644531.679687 49.605468 14.855469 70.28125 10.160156 14.816406 24.027344 26.136718 40.132812 33.070312l-20.757812 80.179688c-20.199219 2.785156-35.804688 20.152343-35.804688 41.105468 0 22.886719 18.617188 41.503906 41.507813 41.503906 8.28125 0 15-6.714843 15-15 0-8.285156-6.71875-15-15-15-6.347657 0-11.507813-5.160156-11.507813-11.503906 0-6.347656 5.160156-11.507812 11.507813-11.507812 6.34375 0 11.503906 5.160156 11.503906 11.507812 0 8.28125 6.714844 15 15 15s15-6.71875 15-15c0-14.171875-7.140625-26.699218-18.007813-34.191406l20.644532-79.734375c2.816406.253906 5.632812.386719 8.4375.386719 15.648437 0 30.964844-3.929688 44.785156-11.527344l28.816406 25.703125c-5.21875 8.996094-9.019531 19.007813-11.035156 29.800781-4.597656 24.648438.679688 49.605469 14.855469 70.285156 14.175781 20.675782 35.558593 34.59375 60.203125 39.191407 5.824218 1.085937 11.65625 1.621093 17.449218 1.621093 19.171876 0 37.835938-5.886718 53.871094-17.199218 5.746094-4.054688 7.761719-11.40625 5.324219-17.675782-2.382813-16.605468-11.589844-31.027343-24.671875-40.351562 4.257812-6.515625 6.742188-14.289062 6.742188-22.636719 0-22.886719-18.621094-41.507812-41.507813-41.507812s-41.507813 18.621093-41.507813 41.507812c0 8.347657 2.488282 16.121094 6.746094 22.636719-6.914062 4.925781-12.742187 11.273438-17.058594 18.621094-.28125-.394532-.570312-.773438-.84375-1.171875-9.648437-14.070313-13.234374-31.050781-10.109374-47.820313 6.457031-34.609375 39.859374-57.53125 74.484374-51.0625 34.613282 6.457032 57.519532 39.867188 51.0625 74.480469-1.515624 8.144531 3.855469 15.980469 11.996094 17.496094 8.140625 1.511719 15.980469-3.851563 17.496094-11.996094 8.125-43.566406-15.40625-85.839844-54.285156-103.042969zm-49.691406 148.609375c-5.816407-1.085937-11.359376-2.949219-16.53125-5.488281 4.21875-11.515625 15.285156-19.753906 28.242187-19.753906s24.023437 8.238281 28.238281 19.753906c-12.304687 6.101562-26.171875 8.058594-39.949218 5.488281zm.203124-66.75c0-6.34375 5.164063-11.503906 11.507813-11.503906s11.507813 5.160156 11.507813 11.503906c0 6.347657-5.164063 11.507813-11.507813 11.507813s-11.507813-5.164063-11.507813-11.507813zm-155.074218-155.074219c0-6.347656 5.160156-11.507812 11.507812-11.507812 6.34375 0 11.503906 5.160156 11.503906 11.507812 0 6.34375-5.160156 11.503907-11.503906 11.503907-6.347656 0-11.507812-5.160157-11.507812-11.503907zm-.203125 66.746094c-5.820313-1.082031-11.359375-2.949218-16.53125-5.488281 4.214843-11.515625 15.285156-19.753906 28.238281-19.753906 12.957031 0 24.023438 8.238281 28.242188 19.753906-12.304688 6.105469-26.175782 8.0625-39.949219 5.488281zm0 0" fill="#fff"/></svg>