<svg height="464pt" viewBox="0 0 464 464" width="464pt" xmlns="http://www.w3.org/2000/svg"><path d="m336 160h-208v32h-16v176h240v-176h-16zm0 0" fill="#cfdfe8"/><path d="m0 432h464v32h-464zm0 0" fill="#4d7282"/><path d="m16 400h432v32h-432zm0 0" fill="#cfdfe8"/><path d="m32 368h96v32h-96zm0 0" fill="#aabece"/><path d="m336 368h96v32h-96zm0 0" fill="#aabece"/><path d="m48 192h64v176h-64zm0 0" fill="#688899"/><path d="m32 160h96v32h-96zm0 0" fill="#aabece"/><path d="m152 224h80v144h-80zm0 0" fill="#f9bb4b"/><path d="m232 224h80v144h-80zm0 0" fill="#f9cc85"/><path d="m128 368h208v32h-208zm0 0" fill="#6b8b96"/><path d="m184 256h32v32h-32zm0 0" fill="#e29e30"/><path d="m248 256h32v32h-32zm0 0" fill="#e29e30"/><path d="m208 312h16v16h-16zm0 0" fill="#a86309"/><path d="m240 312h16v16h-16zm0 0" fill="#a86309"/><path d="m72 216h16v16h-16zm0 0" fill="#38667a"/><path d="m72 248h16v32h-16zm0 0" fill="#38667a"/><path d="m72 320h16v48h-16zm0 0" fill="#38667a"/><path d="m352 192h64v176h-64zm0 0" fill="#688899"/><path d="m336 160h96v32h-96zm0 0" fill="#aabece"/><path d="m376 328h16v16h-16zm0 0" fill="#38667a"/><path d="m376 280h16v32h-16zm0 0" fill="#38667a"/><path d="m376 192h16v48h-16zm0 0" fill="#38667a"/><path d="m0 128h464v32h-464zm0 0" fill="#688899"/><path d="m312 224h-160l16-32h128zm0 0" fill="#688899"/><path d="m464 128h-464l232-128zm0 0" fill="#aabece"/><path d="m384 128h-304l152-88zm0 0" fill="#cfdfe8"/><g fill="#aabece"><path d="m224 80h16v16h-16zm0 0"/><path d="m256 88h16v16h-16zm0 0"/><path d="m192 88h16v16h-16zm0 0"/></g></svg>