<svg height="512pt" viewBox="0 0 512 512" width="512pt" xmlns="http://www.w3.org/2000/svg" xmlns:xlink="http://www.w3.org/1999/xlink"><linearGradient id="a" gradientUnits="userSpaceOnUse" x1="0" x2="512" y1="256" y2="256"><stop offset="0" stop-color="#00f38d"/><stop offset="1" stop-color="#009eff"/></linearGradient><path d="m512 256c0 141.386719-114.613281 256-256 256s-256-114.613281-256-256 114.613281-256 256-256 256 114.613281 256 256zm0 0" fill="url(#a)"/><g fill="#fff"><path d="m202.296875 127.542969h79.839844v30h-79.839844zm0 0"/><path d="m173.988281 182.464844h30v26.609375h-30zm0 0"/><path d="m227.214844 182.464844h30v26.609375h-30zm0 0"/><path d="m173.988281 235.691406h30v26.613282h-30zm0 0"/><path d="m227.214844 235.691406h30v26.613282h-30zm0 0"/><path d="m173.988281 288.914062h30v26.613282h-30zm0 0"/><path d="m227.214844 288.914062h30v26.613282h-30zm0 0"/><path d="m173.988281 342.140625h30v26.613281h-30zm0 0"/><path d="m227.214844 342.140625h30v26.613281h-30zm0 0"/><path d="m280.441406 182.464844h30v26.609375h-30zm0 0"/><path d="m280.441406 235.691406h30v26.613282h-30zm0 0"/><path d="m388.285156 351.472656c7.066406-8.746094 11.3125-19.859375 11.3125-31.953125 0-28.082031-22.847656-50.925781-50.929687-50.925781s-50.929688 22.84375-50.929688 50.925781c0 12.09375 4.246094 23.207031 11.3125 31.953125-22.308593 13.46875-37.257812 37.945313-37.257812 65.851563h30c0-25.847657 21.027343-46.875 46.875-46.875 25.847656 0 46.875 21.027343 46.875 46.875h30c0-27.90625-14.949219-52.382813-37.257813-65.851563zm-60.542968-31.953125c0-11.539062 9.386718-20.925781 20.925781-20.925781 11.542969 0 20.929687 9.386719 20.929687 20.925781 0 11.542969-9.386718 20.929688-20.929687 20.929688-11.539063 0-20.925781-9.386719-20.925781-20.929688zm0 0"/><path d="m149.070312 155.851562h26.613282v-52.5625h133.066406v52.5625h26.613281v88.992188c4.320313-.769531 8.765625-1.171875 13.304688-1.171875 4.539062 0 8.984375.402344 13.308593 1.171875v-115.605469h-26.613281v-52.5625h-186.292969v52.5625h-26.613281v288.085938h124.417969c0-9.207031 1.234375-18.125 3.535156-26.613281h-101.339844zm0 0"/></g></svg>