<svg height="512pt" viewBox="0 0 512 512" width="512pt" xmlns="http://www.w3.org/2000/svg" xmlns:xlink="http://www.w3.org/1999/xlink"><linearGradient id="a" gradientUnits="userSpaceOnUse" x1="0" x2="512" y1="256" y2="256"><stop offset="0" stop-color="#00f1ff"/><stop offset=".231" stop-color="#00d8ff"/><stop offset=".5138" stop-color="#00c0ff"/><stop offset=".7773" stop-color="#00b2ff"/><stop offset="1" stop-color="#00adff"/></linearGradient><path style="fill: rgb(0, 220, 255);" d="m512 256c0 141.386719-114.613281 256-256 256s-256-114.613281-256-256 114.613281-256 256-256 256 114.613281 256 256zm0 0" fill="url(#a)"/><g fill="#fff"><path d="m412.386719 111.78125h-60.542969v-12.167969c0-8.285156-6.714844-15-15-15s-15 6.714844-15 15v12.167969h-62.53125c-8.28125 0-15 6.714844-15 15v103.984375l-27.128906-33.773437c-10.347656-12.882813-25.761719-20.269532-42.285156-20.269532h-48.777344c-22.886719 0-41.507813 18.617188-41.507813 41.503906v72.230469c0 17.601563 11.011719 32.675781 26.507813 38.703125v83.226563c0 8.285156 6.714844 15 15 15 8.28125 0 15-6.714844 15-15v-95.421875c0-8.285156-6.71875-15-15-15-6.347656 0-11.507813-5.160156-11.507813-11.507813v-72.230469c0-6.34375 5.160157-11.503906 11.507813-11.503906h48.777344c7.386718 0 14.273437 3.300782 18.898437 9.058594l53.160156 66.179688c3.03125 3.773437 7.515625 5.679687 12.007813 5.589843.117187 0 .230468.015625.347656.015625 8.285156 0 15-6.714844 15-15v-130.785156h123.074219v124.820312c0 8.285157 6.714843 15 15 15 8.285156 0 15-6.714843 15-15v-139.820312c0-8.285156-6.714844-15-15-15zm0 0"/><path d="m305.699219 194.792969h60.300781c8.285156 0 15-6.714844 15-15 0-8.28125-6.714844-15-15-15h-60.300781c-8.285157 0-15 6.71875-15 15 0 8.285156 6.714843 15 15 15zm0 0"/><path d="m305.699219 241.179688h60.300781c8.285156 0 15-6.714844 15-15 0-8.285157-6.714844-15-15-15h-60.300781c-8.285157 0-15 6.714843-15 15 0 8.285156 6.714843 15 15 15zm0 0"/><path d="m305.699219 288.230469h27.167969c8.285156 0 15-6.71875 15-15 0-8.285157-6.714844-15-15-15h-27.167969c-8.285157 0-15 6.714843-15 15 0 8.28125 6.714843 15 15 15zm0 0"/><path d="m412.386719 317.867188c-8.28125 0-15 6.71875-15 15 0 6.347656-5.160157 11.507812-11.503907 11.507812h-100.0625c-6.347656 0-11.507812-5.160156-11.507812-11.507812v-7.289063c0-8.28125-6.714844-15-15-15s-15 6.71875-15 15v7.289063c0 22.886718 18.621094 41.507812 41.507812 41.507812h36.023438v23.011719h-22.773438c-8.28125 0-15 6.71875-15 15 0 8.285156 6.71875 15 15 15h76.207032c8.285156 0 15-6.714844 15-15 0-8.28125-6.714844-15-15-15h-23.433594v-23.011719h34.039062c22.886719 0 41.503907-18.621094 41.503907-41.507812 0-8.285157-6.714844-15-15-15zm0 0"/><path d="m179.132812 235.699219c-8.285156 0-15 6.714843-15 15v161.6875c0 8.285156 6.714844 15 15 15 8.28125 0 15-6.714844 15-15v-161.6875c0-8.285157-6.71875-15-15-15zm0 0"/><path d="m152.625 167.625c22.886719 0 41.507812-18.617188 41.507812-41.507812 0-22.886719-18.621093-41.503907-41.507812-41.503907s-41.507812 18.617188-41.507812 41.503907c0 22.886718 18.621093 41.507812 41.507812 41.507812zm0-53.011719c6.34375 0 11.507812 5.160157 11.507812 11.503907 0 6.347656-5.164062 11.507812-11.507812 11.507812s-11.507812-5.160156-11.507812-11.507812c0-6.34375 5.164062-11.503907 11.507812-11.503907zm0 0"/></g></svg>