<svg height="512pt" viewBox="0 0 512 512" width="512pt" xmlns="http://www.w3.org/2000/svg" xmlns:xlink="http://www.w3.org/1999/xlink"><linearGradient id="a" gradientUnits="userSpaceOnUse" x1="0" x2="512" y1="256" y2="256"><stop offset="0" stop-color="#00f38d"/><stop offset="1" stop-color="#009eff"/></linearGradient><path d="m512 256c0 141.386719-114.613281 256-256 256s-256-114.613281-256-256 114.613281-256 256-256 256 114.613281 256 256zm0 0" fill="url(#a)"/><path d="m411.320312 234.402344c-3.40625.1875-6.835937.355468-10.277343.523437-17.675781.867188-36.523438 1.796875-54.847657 5.375-4.914062-33.082031-16.363281-68.015625-32.421874-98.183593-10.519532-19.773438-30.75-51.988282-52.652344-56.398438-.132813-.03125-.265625-.0625-.398438-.089844-.0625-.011718-.125-.027344-.191406-.035156-1.207031-.253906-2.476562-.398438-3.820312-.398438-.105469 0-.203126.007813-.308594.011719-.082032-.003906-.164063-.011719-.242188-.011719-22.28125 0-43.628906 31.132813-54.371094 49.691407-13.089843 22.621093-23.628906 49.179687-30.292968 75.773437-20.578125-9.15625-44.238282-14.503906-70.816406-15.957031l-15.816407-.859375v24.636719l6.820313 4.4375c17.6875 11.507812 30.773437 43.679687 44.628906 77.738281 11.777344 28.945312 23.953125 58.875 41.332031 82.582031 21.484375 29.316407 47.007813 43.566407 78.027344 43.566407h.660156c30.820313 0 56.28125-11.277344 77.84375-34.480469 17.835938-19.191407 30.257813-43.472657 42.269531-66.957031 13.488282-26.371094 26.230469-51.273438 43.875-62.753907l6.820313-4.4375v-24.640625zm-165.628906-12.417969c3.367188.242187 6.730469.378906 10.097656.378906 4.03125 0 8.0625-.179687 12.089844-.527343.578125 8.601562 1.097656 17.492187 1.546875 26.597656-8.464843.8125-16.929687.851562-25.421875.128906.519532-9.191406 1.082032-18.066406 1.6875-26.578125zm4.742188-51.972656c2.167968-18.410157 4.359375-31.203125 6.300781-40.050781 2.101563 9.308593 4.484375 22.9375 6.777344 42.769531.773437 6.699219 1.496093 13.800781 2.171875 21.230469-5.914063.523437-11.828125.574218-17.746094.160156.785156-8.582032 1.621094-16.644532 2.496094-24.109375zm45.164062 46.679687c5.261719-1.496094 10.515625-3.28125 15.761719-5.371094 2.296875 8.175782 4.21875 16.371094 5.714844 24.472657-6.65625 2.878906-13.277344 5.289062-19.878907 7.226562-.46875-9.027343-1-17.820312-1.597656-26.328125zm6.878906-31.988281c-3.074218 1.269531-6.140624 2.414063-9.207031 3.433594-1.015625-10.789063-2.144531-20.902344-3.375-30.167969-.066406-.5-.132812-.984375-.199219-1.476562.332032.625.660157 1.25.988282 1.894531 4.34375 8.4375 8.28125 17.277343 11.792968 26.316406zm-77.875-33.292969c-.1875 1.320313-.371093 2.660156-.554687 4.023438-1.410156 10.527344-2.648437 21.800781-3.734375 33.363281-3.765625-1.183594-7.535156-2.5625-11.316406-4.121094 5.546875-14.285156 11.3125-25.609375 15.527344-33.128906.027343-.046875.050781-.089844.078124-.136719zm-24.40625 59.914063c5.914063 2.355469 11.835938 4.324219 17.761719 5.925781-.59375 8.160156-1.121093 16.273438-1.585937 24.195312-.246094-.246093-.480469-.503906-.730469-.75-5.804687-5.78125-12.078125-11.023437-18.792969-15.734374 1.019532-4.695313 2.144532-9.246094 3.347656-13.636719zm-36.09375 78.027343c-8.695312-21.375-17.125-42.09375-27.273437-59.148437 23.273437 5.964844 42.308594 16.476563 57.644531 31.75 28.070313 27.953125 43.46875 72.589844 45.867188 132.824219-37.558594-10.339844-57.183594-58.589844-76.238282-105.425782zm78.480469-12.199218c.011719-.21875.019531-.433594.03125-.652344 4.359375.335938 8.71875.515625 13.082031.515625 4.957032 0 9.917969-.226563 14.875-.660156.105469 3.199219.203126 6.414062.292969 9.640625-5.3125 7.621094-9.90625 16.175781-13.773437 25.703125-3.96875-12.492188-8.808594-24.007813-14.507813-34.546875zm107.15625 34.554687c-19.953125 39-38.921875 76.074219-78.109375 83.679688 4.007813-107.257813 48.261719-124.109375 103.710938-128.84375-9.386719 13.464843-17.371094 29.074219-25.601563 45.164062zm0 0" fill="#fff"/></svg>