<svg height="512pt" viewBox="0 0 512 512" width="512pt" xmlns="http://www.w3.org/2000/svg" xmlns:xlink="http://www.w3.org/1999/xlink"><linearGradient id="a" gradientUnits="userSpaceOnUse" x1="0" x2="512" y1="256" y2="256"><stop offset="0" stop-color="#00f38d"/><stop offset="1" stop-color="#009eff"/></linearGradient><path d="m512 256c0 141.386719-114.613281 256-256 256s-256-114.613281-256-256 114.613281-256 256-256 256 114.613281 256 256zm0 0" fill="url(#a)"/><g fill="#fff"><path d="m168.722656 155.054688c-22.945312 0-41.613281-18.667969-41.613281-41.613282 0-22.945312 18.667969-41.613281 41.613281-41.613281 22.945313 0 41.613282 18.667969 41.613282 41.613281 0 22.945313-18.667969 41.613282-41.613282 41.613282zm0-53.226563c-6.402344 0-11.613281 5.210937-11.613281 11.613281s5.210937 11.613282 11.613281 11.613282 11.613282-5.210938 11.613282-11.613282-5.210938-11.613281-11.613282-11.613281zm0 0"/><path d="m210.335938 414.171875h-30v-124.78125h26.613281v-83.46875c0-6.402344-5.210938-11.613281-11.613281-11.613281h-53.226563c-6.402344 0-11.613281 5.210937-11.613281 11.613281v83.46875h26.613281v124.78125h-30v-94.78125h-26.613281v-113.46875c0-22.945313 18.667968-41.613281 41.613281-41.613281h53.226563c22.945312 0 41.613281 18.667968 41.613281 41.613281v113.46875h-26.613281zm0 0"/><path d="m379.59375 225.585938c-1.574219-58.066407-49.304688-104.824219-107.746094-104.824219-13.171875 0-26.074218 2.394531-38.144531 6.960937-1.511719 6.875-4.082031 13.355469-7.539063 19.253906 4.167969 2.1875 8.070313 4.8125 11.660157 7.796876 10.363281-4.757813 21.894531-7.398438 34.023437-7.398438 44.757813 0 81.171875 36.410156 81.171875 81.167969v23.289062h19.292969c24.582031 0 44.578125 19.996094 44.578125 44.574219 0 24.574219-19.988281 44.574219-44.5625 44.582031l-.371094-.003906h-136.699219v26.613281l136.617188-.003906c.144531.003906.292969.003906.4375.003906 39.253906 0 71.191406-31.933594 71.191406-71.1875 0-36.800781-28.0625-67.167968-63.910156-70.824218zm0 0"/></g></svg>