<svg height="512pt" viewBox="0 0 512 512" width="512pt" xmlns="http://www.w3.org/2000/svg" xmlns:xlink="http://www.w3.org/1999/xlink"><linearGradient id="a" gradientUnits="userSpaceOnUse" x1="0" x2="512" y1="256" y2="256"><stop offset="0" stop-color="#00f38d"/><stop offset="1" stop-color="#009eff"/></linearGradient><path d="m512 256c0 141.386719-114.613281 256-256 256s-256-114.613281-256-256 114.613281-256 256-256 256 114.613281 256 256zm0 0" fill="url(#a)"/><g fill="#fff"><path d="m406.066406 380.171875v-189.1875l-106.453125-53.5625v-18.726563h-26.613281v-26.613281h-53.226562v-24.253906h-30v24.253906h-53.226563v26.613281h-26.613281v261.476563h-22.257813v30h340.648438v-30zm-30-170.699219v170.699219h-76.453125v-209.164063zm-236.132812-60.777344h26.613281v-26.609374h76.453125v26.609374h26.613281v231.476563h-129.679687zm0 0"/><path d="m163.160156 173.617188h30v26.613281h-30zm0 0"/><path d="m216.386719 173.617188h30v26.613281h-30zm0 0"/><path d="m163.160156 226.84375h30v26.609375h-30zm0 0"/><path d="m216.386719 226.84375h30v26.609375h-30zm0 0"/><path d="m163.160156 280.070312h30v26.613282h-30zm0 0"/><path d="m216.386719 280.070312h30v26.613282h-30zm0 0"/><path d="m163.160156 333.296875h30v26.613281h-30zm0 0"/><path d="m216.386719 333.296875h30v26.613281h-30zm0 0"/><path d="m322.839844 226.84375h30v26.609375h-30zm0 0"/><path d="m322.839844 280.070312h30v26.613282h-30zm0 0"/><path d="m322.839844 333.296875h30v26.613281h-30zm0 0"/></g></svg>