<svg height="512pt" viewBox="0 0 512 512" width="512pt" xmlns="http://www.w3.org/2000/svg" xmlns:xlink="http://www.w3.org/1999/xlink"><linearGradient id="a" gradientUnits="userSpaceOnUse" x1="0" x2="512" y1="256" y2="256"><stop offset="0" stop-color="#00f1ff"/><stop offset=".231" stop-color="#00d8ff"/><stop offset=".5138" stop-color="#00c0ff"/><stop offset=".7773" stop-color="#00b2ff"/><stop offset="1" stop-color="#00adff"/></linearGradient><path d="m512 256c0 141.386719-114.613281 256-256 256s-256-114.613281-256-256 114.613281-256 256-256 256 114.613281 256 256zm0 0" fill="url(#a)"/><g fill="#fff"><path d="m351.054688 368.8125c-7.933594 1.335938-13.359376 8.667969-12.410157 16.574219h-168.582031c7.21875-40.945313 42.550781-70.589844 84.28125-70.589844 24.105469 0 47.226562 10.253906 63.433594 28.125 5.5625 6.136719 15.046875 6.605469 21.1875 1.039063 6.136718-5.5625 6.601562-15.050782 1.035156-21.1875-10.972656-12.105469-24.296875-21.621094-38.960938-28.097657 11.140626-11.625 18.003907-27.378906 18.003907-44.710937 0-35.675782-29.023438-64.699219-64.699219-64.699219s-64.699219 29.023437-64.699219 64.699219c0 17.324218 6.859375 33.070312 17.988281 44.695312-10.1875 4.496094-19.742187 10.46875-28.320312 17.796875-20.648438 17.632813-34.484375 42.019531-38.957031 68.664063-1.4375 8.550781.949219 17.25 6.550781 23.867187 5.589844 6.609375 13.757812 10.398438 22.414062 10.398438h170.046876c8.65625 0 16.824218-3.789063 22.417968-10.398438 5.597656-6.617187 7.984375-15.316406 6.550782-23.867187-1.375-8.167969-9.101563-13.679688-17.28125-12.308594zm-96.710938-153.546875c19.132812 0 34.699219 15.5625 34.699219 34.699219 0 19.132812-15.566407 34.699218-34.699219 34.699218s-34.699219-15.566406-34.699219-34.699218c0-19.132813 15.566407-34.699219 34.699219-34.699219zm0 0"/><path d="m231.144531 155.648438c6.304688 6.246093 14.585938 9.371093 22.867188 9.371093s16.5625-3.125 22.867187-9.371093l24.46875-24.25c5.886719-5.828126 5.929688-15.328126.097656-21.210938-5.832031-5.886719-15.328124-5.925781-21.214843-.097656l-10.886719 10.792968v-33.269531c0-8.285156-6.714844-15-15-15s-15 6.714844-15 15v33.925781l-11.550781-11.445312c-5.886719-5.835938-15.382813-5.789062-21.214844.09375-5.832031 5.886719-5.785156 15.382812.097656 21.214844zm0 0"/><path d="m397.476562 175.25h-16.722656l28.65625-28.65625c5.859375-5.859375 5.859375-15.355469 0-21.210938-5.855468-5.859374-15.355468-5.859374-21.214844 0l-29.316406 29.316407v-18.050781c0-8.285157-6.71875-15-15-15-8.285156 0-15 6.714843-15 15v36.117187c0 17.910156 14.570313 32.484375 32.484375 32.484375h36.113281c8.285157 0 15-6.714844 15-15s-6.714843-15-15-15zm0 0"/><path d="m183.125 173.425781v-36.113281c0-8.285156-6.71875-15-15-15-8.285156 0-15 6.714844-15 15v18.710938l-29.320312-29.320313c-5.859376-5.855469-15.355469-5.855469-21.214844 0-5.855469 5.859375-5.855469 15.355469 0 21.214844l27.996094 27.996093h-16.0625c-8.285157 0-15 6.714844-15 15 0 8.28125 6.714843 15 15 15h36.113281c17.914062 0 32.488281-14.574218 32.488281-32.488281zm0 0"/></g></svg>