<svg height="511pt" viewBox="0 -21 511.99976 511" width="511pt" xmlns="http://www.w3.org/2000/svg"><g fill="#0099e3"><path d="m448.851562 216.332031h30v69.621094h-30zm0 0"/><path d="m448.851562 167h30v28.667969h-30zm0 0"/><path d="m384.492188 247.140625h30v28.667969h-30zm0 0"/></g><path d="m173.996094 175.667969h30v69.621093h-30zm0 0" fill="#00bff0"/><path d="m173.996094 126.335938h30v28.667968h-30zm0 0" fill="#00bff0"/><path d="m495.148438 354.921875-.421876.339844-120.945312 95.15625c-15.199219 11.972656-33.460938 18.640625-52.480469 19.371093-1.160156.050782-2.328125.070313-3.5.070313-3.207031 0-6.417969-.171875-9.648437-.511719l-205.945313-21.707031h-102.207031v-184.238281h83.898438c10.167968-11.359375 34.898437-33.117188 75.21875-33.117188 40.636718 0 65.949218 23.117188 76.246093 34.957032h84.75c.398438 0 .789063 0 1.1875.023437 27.480469.628906 49.652344 23.1875 49.652344 50.816406 0 3.941407-.460937 7.769531-1.3125 11.449219l67.269531-47.878906c16.398438-11.558594 37.429688-11.4375 53.308594-1.117188 4.480469 2.90625 8.558594 6.636719 12 11.148438 15.398438 20.167968 12.300781 48.828125-7.070312 65.238281zm0 0" fill="#25d8f7"/><path d="m495.148438 354.921875-.421876.339844-120.945312 95.15625c-15.199219 11.972656-33.460938 18.640625-52.480469 19.371093v-204.523437c27.480469.628906 49.652344 23.1875 49.652344 50.816406 0 3.941407-.460937 7.769531-1.3125 11.449219l67.269531-47.878906c16.398438-11.558594 37.429688-11.4375 53.308594-1.117188 4.480469 2.90625 8.558594 6.636719 12 11.148438 15.398438 20.167968 12.300781 48.828125-7.070312 65.238281zm0 0" fill="#00bff0"/><path d="m490.21875 278.535156-124.199219 88.394532h-130.566406v-29.996094h120.988281l13.199219-9.402344 67.269531-47.878906c16.398438-11.558594 37.429688-11.4375 53.308594-1.117188zm0 0" fill="#00bff0"/><path d="m490.21875 278.535156-124.199219 88.394532h-44.71875v-29.996094h35.140625l13.199219-9.402344 67.269531-47.878906c16.398438-11.558594 37.429688-11.4375 53.308594-1.117188zm0 0" fill="#0099e3"/><path d="m409.929688 148.316406c0 49.398438-40.1875 89.597656-89.597657 89.597656-49.410156 0-89.609375-40.199218-89.609375-89.597656 0-20.558594 13.121094-48.949218 40.089844-86.777344 18.902344-26.5 37.519531-47.53125 38.300781-48.410156l11.21875-12.628906 11.210938 12.628906c.789062.878906 19.398437 21.910156 38.296875 48.410156 26.980468 37.828126 40.089844 66.21875 40.089844 86.777344zm0 0" fill="#25d8f7"/><path d="m409.929688 148.316406c0 49.398438-40.1875 89.597656-89.597657 89.597656v-237.414062l11.210938 12.628906c.789062.878906 19.398437 21.910156 38.296875 48.410156 26.980468 37.828126 40.089844 66.21875 40.089844 86.777344zm0 0" fill="#00bff0"/></svg>