<svg height="512pt" viewBox="0 0 512 512" width="512pt" xmlns="http://www.w3.org/2000/svg"><path style="fill: rgba(0, 180, 255);" d="m472 296v-30h-40v30h-72v-30h-40v30c-22.054688 0-40 17.945312-40 40v136c0 22.054688 17.945312 40 40 40h152c22.054688 0 40-17.945312 40-40v-136c0-22.054688-17.945312-40-40-40zm0 40 .007812 30h-152.007812v-30zm0 136h-152v-66h152.011719l.011719 66s-.003907 0-.023438 0zm-221.292969-175.933594c-116.667969 2.820313-210.707031 98.601563-210.707031 215.933594h-40c0-68.378906 26.628906-132.667969 74.980469-181.019531 27.882812-27.882813 61.070312-48.523438 97.28125-61.019531-38.78125-26.710938-64.261719-71.414063-64.261719-121.960938 0-81.605469 66.394531-148 148-148s148 66.394531 148 148c0 28.605469-8.167969 55.335938-22.277344 78h-51.097656c20.554688-19.675781 33.375-47.367188 33.375-78 0-59.550781-48.449219-108-108-108s-108 48.449219-108 108 48.449219 108 108 108c8.246094 0 16.277344-.933594 24-2.691406v13.425781c-12.140625 7.039063-22.265625 17.183594-29.292969 29.332031zm0 0"/></svg>